# 3ds Max Wavefront OBJ Exporter v0.97b - (c)2007 guruware
# 创建的文件:22.12.2017 12:47:21

mtllib 机柜1.mtl

#
# object Box036
#

v  -59991.2227 223.7217 237.9174
v  -59896.0195 223.7217 237.9174
v  -59896.0195 231.9943 225.9853
v  -59991.2227 231.9943 225.9853
v  -59896.0195 231.9942 159.4778
v  -59991.2227 231.9942 159.4778
v  -59896.0195 223.7216 147.5458
v  -59991.2227 223.7216 147.5458
v  -59896.0195 212.0804 237.9174
v  -59991.2227 212.0804 237.9174
v  -59991.2227 212.0804 225.9853
v  -59896.0195 212.0804 225.9853
v  -59991.2227 212.0804 159.4779
v  -59896.0195 212.0804 159.4779
v  -59991.2227 212.0804 147.5458
v  -59896.0195 212.0804 147.5458
# 16 vertices

vn -0.0000 0.8218 0.5698
vn -0.0000 0.9544 0.2985
vn 0.0000 0.9544 -0.2985
vn 0.0000 0.8218 -0.5698
vn -0.0000 -1.0000 0.0000
vn 0.0000 -0.0000 -1.0000
vn 1.0000 0.0000 0.0000
vn -0.0000 0.0000 1.0000
vn -1.0000 0.0000 -0.0000
# 9 vertex normals

vt 1.0000 90.3716 0.0000
vt -94.2012 90.3716 0.0000
vt -94.2012 78.4395 0.0000
vt 1.0000 78.4395 0.0000
vt -94.2012 11.9321 0.0000
vt 1.0000 11.9321 0.0000
vt -94.2012 0.0000 0.0000
vt 1.0000 0.0000 0.0000
vt 95.2012 90.3716 0.0000
vt 0.0000 90.3716 0.0000
vt 0.0000 78.4395 0.0000
vt 95.2012 78.4395 0.0000
vt 0.0000 11.9321 0.0000
vt 95.2012 11.9321 0.0000
vt 0.0000 0.0000 0.0000
vt 95.2012 0.0000 0.0000
vt 95.2012 140.0414 0.0000
vt 0.0000 140.0414 0.0000
vt 90.3716 0.0000 0.0000
vt 90.3716 140.0414 0.0000
vt 78.4395 140.0414 0.0000
vt 78.4395 0.0000 0.0000
vt 11.9321 140.0414 0.0000
vt 11.9321 0.0000 0.0000
# 24 texture coords

g Box036
usemtl black5
s 2
f 1/1/1 2/2/1 3/3/2 
f 4/4/2 1/1/1 3/3/2 
f 4/4/2 3/3/2 5/5/3 
f 6/6/3 4/4/2 5/5/3 
f 6/6/3 5/5/3 7/7/4 
f 6/6/3 7/7/4 8/8/4 
s 4
f 9/9/5 10/10/5 11/11/5 
f 12/12/5 9/9/5 11/11/5 
f 12/12/5 11/11/5 13/13/5 
f 14/14/5 12/12/5 13/13/5 
f 14/14/5 13/13/5 15/15/5 
f 14/14/5 15/15/5 16/16/5 
s 8
f 8/15/6 7/16/6 16/17/6 
f 16/17/6 15/18/6 8/15/6 
s 16
f 2/19/7 9/20/7 12/21/7 
f 3/22/7 2/19/7 12/21/7 
f 3/22/7 12/21/7 14/23/7 
f 5/24/7 3/22/7 14/23/7 
f 5/24/7 14/23/7 16/18/7 
f 5/24/7 16/18/7 7/15/7 
s 32
f 2/15/8 1/16/8 10/17/8 
f 10/17/8 9/18/8 2/15/8 
s 64
f 8/19/9 15/20/9 13/21/9 
f 6/22/9 8/19/9 13/21/9 
f 6/22/9 13/21/9 11/23/9 
f 4/24/9 6/22/9 11/23/9 
f 4/24/9 11/23/9 10/18/9 
f 4/24/9 10/18/9 1/15/9 
# 28 faces

#
# object Box046
#

v  -59984.4492 -40.7775 231.3508
v  -59984.4492 -40.7775 155.3391
v  -59984.4492 215.6022 155.3391
v  -59984.4492 215.6022 231.3508
v  -59989.5742 -40.7775 155.3391
v  -59989.5742 215.6022 155.3391
v  -59989.5742 -40.7775 231.3508
v  -59989.5742 215.6022 231.3508
# 8 vertices

vn 1.0000 0.0000 -0.0000
vn -0.0000 0.0000 -1.0000
vn -1.0000 0.0000 0.0000
vn 0.0000 0.0000 1.0000
# 4 vertex normals

vt 0.0000 0.0000 0.0000
vt 76.0117 0.0000 0.0000
vt 76.0117 256.3797 0.0000
vt 0.0000 256.3797 0.0000
vt 5.1215 0.0000 0.0000
vt 5.1215 256.3797 0.0000
# 6 texture coords

g Box046
usemtl black5
s 8
f 17/25/10 18/26/10 19/27/10 
f 19/27/10 20/28/10 17/25/10 
s 16
f 18/25/11 21/29/11 22/30/11 
f 22/30/11 19/28/11 18/25/11 
s 32
f 21/25/12 23/26/12 24/27/12 
f 24/27/12 22/28/12 21/25/12 
s 64
f 23/25/13 17/29/13 20/30/13 
f 20/30/13 24/28/13 23/25/13 
# 8 faces

#
# object Box047
#

v  -59897.0547 -40.7775 231.3508
v  -59897.0547 -40.7775 155.3391
v  -59897.0547 215.6022 155.3391
v  -59897.0547 215.6022 231.3508
v  -59902.1797 -40.7775 155.3391
v  -59902.1797 215.6022 155.3391
v  -59902.1797 -40.7775 231.3508
v  -59902.1797 215.6022 231.3508
# 8 vertices

vn 1.0000 0.0000 -0.0000
vn -0.0000 0.0000 -1.0000
vn -1.0000 0.0000 0.0000
vn 0.0000 0.0000 1.0000
# 4 vertex normals

vt 0.0000 0.0000 0.0000
vt 76.0117 0.0000 0.0000
vt 76.0117 256.3797 0.0000
vt 0.0000 256.3797 0.0000
vt 5.1215 0.0000 0.0000
vt 5.1215 256.3797 0.0000
# 6 texture coords

g Box047
usemtl black5
s 8
f 25/31/14 26/32/14 27/33/14 
f 27/33/14 28/34/14 25/31/14 
s 16
f 26/31/15 29/35/15 30/36/15 
f 30/36/15 27/34/15 26/31/15 
s 32
f 29/31/16 31/32/16 32/33/16 
f 32/33/16 30/34/16 29/31/16 
s 64
f 31/31/17 25/35/17 28/36/17 
f 28/36/17 32/34/17 31/31/17 
# 8 faces

#
# object Box048
#

v  -59895.9180 -46.9205 238.4309
v  -59895.9180 -46.9205 147.2825
v  -59895.9180 -40.5612 147.2825
v  -59895.9180 -40.5612 238.4309
v  -59991.1250 -46.9205 238.4309
v  -59991.1250 -40.5612 238.4309
v  -59991.1250 -40.5612 147.2825
v  -59991.1250 -46.9205 147.2825
# 8 vertices

vn 1.0000 -0.0000 -0.0000
vn -1.0000 0.0000 0.0000
vn -0.0000 -1.0000 0.0000
vn -0.0000 0.0000 -1.0000
vn 0.0000 1.0000 -0.0000
vn 0.0000 0.0000 1.0000
# 6 vertex normals

vt 1.0000 0.0000 0.0000
vt -90.1484 0.0000 0.0000
vt -90.1484 6.3593 0.0000
vt 1.0000 6.3593 0.0000
vt 0.0000 0.0000 0.0000
vt 0.0000 6.3593 0.0000
vt 91.1484 6.3593 0.0000
vt 91.1484 0.0000 0.0000
vt 0.0000 -11.9477 0.0000
vt 91.1484 -11.9477 0.0000
vt 6.3593 -11.9477 0.0000
vt 6.3593 0.0000 0.0000
# 12 texture coords

g Box048
usemtl black5
s 2
f 33/37/18 34/38/18 35/39/18 
f 35/39/18 36/40/18 33/37/18 
s 4
f 37/41/19 38/42/19 39/43/19 
f 39/43/19 40/44/19 37/41/19 
s 8
f 33/41/20 37/45/20 40/46/20 
f 40/46/20 34/44/20 33/41/20 
s 16
f 34/41/21 40/45/21 39/47/21 
f 39/47/21 35/48/21 34/41/21 
s 32
f 35/41/22 39/45/22 38/46/22 
f 38/46/22 36/44/22 35/41/22 
s 64
f 36/41/23 38/45/23 37/47/23 
f 37/47/23 33/48/23 36/41/23 
# 12 faces

