# 3ds Max Wavefront OBJ Exporter v0.97b - (c)2007 guruware
# 创建的文件:22.12.2017 10:47:36

mtllib 机柜3.mtl

#
# object Line036
#

v  1093049.2500 2307.2927 -50142.5898
v  1093046.8750 2307.2927 -50142.5664
v  1093049.2500 2307.2927 -50141.4453
v  1093052.1250 2319.6199 -50145.0625
v  1092962.1250 2319.6199 -50145.0625
v  1092962.1250 2547.2927 -50145.0625
v  1093052.1250 2547.2927 -50145.0625
# 7 vertices

vn 0.0000 1.0000 -0.0000
vn 0.0000 0.0000 -1.0000
# 2 vertex normals

vt 0.0300 0.4526 0.0000
vt 0.0200 0.4525 0.0000
vt 0.0300 0.4478 0.0000
vt 0.0100 0.3533 0.0000
vt 0.0106 0.0214 0.0000
vt 0.9794 0.0229 0.0000
vt 0.9758 0.3531 0.0000
# 7 texture coords

g Line036
usemtl Material__1983
s 1
f 1/1/1 2/2/1 3/3/1 
s 8
f 4/4/2 5/5/2 6/6/2 
f 6/6/2 7/7/2 4/4/2 
# 3 faces

#
# object Box1818
#

v  1092962.1250 2319.6199 -50055.0625
v  1092962.1250 2319.6199 -50145.0625
v  1093052.1250 2319.6199 -50145.0625
v  1093052.1250 2319.6199 -50055.0625
v  1092962.1250 2547.2927 -50055.0625
v  1093052.1250 2547.2927 -50055.0625
v  1093052.1250 2547.2927 -50145.0625
v  1092962.1250 2547.2927 -50145.0625
v  1092969.8750 2307.2927 -50057.4414
v  1092975.2500 2319.5356 -50057.3789
v  1092965.0000 2319.5356 -50057.3789
v  1092964.8750 2307.2927 -50057.4414
v  1092965.0000 2319.5356 -50067.6758
v  1092964.8750 2307.2927 -50062.3633
v  1092969.8750 2307.2927 -50142.5000
v  1092964.8750 2307.2927 -50142.5000
v  1092965.0000 2319.5356 -50142.5625
v  1092975.2500 2319.5356 -50142.5625
v  1092964.8750 2307.2927 -50137.5781
v  1092965.0000 2319.5356 -50132.2656
v  1093044.6250 2307.2927 -50057.4414
v  1093049.6250 2307.2927 -50057.4414
v  1093049.5000 2319.5356 -50057.3789
v  1093039.2500 2319.5356 -50057.3789
v  1093049.6250 2307.2927 -50062.3633
v  1093049.5000 2319.5356 -50067.6758
v  1093044.6250 2307.2927 -50142.5000
v  1093039.2500 2319.5356 -50142.5625
v  1093049.5000 2319.5356 -50142.5625
v  1093049.6250 2307.2927 -50142.5000
v  1093049.5000 2319.5356 -50132.2656
v  1093049.6250 2307.2927 -50137.5781
# 32 vertices

vn 0.0000 -1.0000 -0.0000
vn 0.0000 1.0000 -0.0000
vn 1.0000 0.0000 -0.0000
vn -1.0000 0.0000 -0.0000
vn 0.0000 -0.0050 1.0000
vn -1.0000 0.0052 -0.0000
vn 0.0000 -0.0050 -1.0000
vn 1.0000 0.0052 -0.0000
# 8 vertex normals

vt 0.0652 0.9820 0.0000
vt 0.0652 0.7688 0.0000
vt 0.2990 0.7688 0.0000
vt 0.2990 0.9820 0.0000
vt 0.3402 0.7788 0.0000
vt 0.5134 0.7788 0.0000
vt 0.5134 0.9520 0.0000
vt 0.3402 0.9520 0.0000
vt 0.0254 0.6891 0.0000
vt 0.0254 0.3754 0.0000
vt 0.9797 0.3754 0.0000
vt 0.9797 0.6891 0.0000
vt 0.1316 0.2122 0.0000
vt 0.1697 0.1953 0.0000
vt 0.1697 0.2273 0.0000
vt 0.1316 0.2275 0.0000
vt 0.0885 0.2162 0.0000
vt 0.1274 0.2160 0.0000
vt 0.1274 0.2486 0.0000
vt 0.0885 0.2318 0.0000
vt 0.1176 0.2141 0.0000
vt 0.1176 0.1988 0.0000
vt 0.1557 0.1990 0.0000
vt 0.1557 0.2310 0.0000
vt 0.1186 0.2268 0.0000
vt 0.1186 0.2115 0.0000
vt 0.1567 0.1950 0.0000
vt 0.1567 0.2270 0.0000
vt 0.1064 0.2538 0.0000
vt 0.1064 0.2381 0.0000
vt 0.1452 0.2383 0.0000
vt 0.1452 0.2710 0.0000
vt 0.1074 0.2667 0.0000
vt 0.1074 0.2511 0.0000
vt 0.1463 0.2342 0.0000
vt 0.1463 0.2669 0.0000
vt 0.1029 0.2199 0.0000
vt 0.1417 0.2026 0.0000
vt 0.1417 0.2353 0.0000
vt 0.1029 0.2355 0.0000
vt 0.1207 0.2347 0.0000
vt 0.1595 0.2345 0.0000
vt 0.1595 0.2672 0.0000
vt 0.1207 0.2503 0.0000
# 44 texture coords

g Box1818
usemtl Material__1983
s 2
f 8/8/3 9/9/3 10/10/3 
f 10/10/3 11/11/3 8/8/3 
s 4
f 12/12/4 13/13/4 14/14/4 
f 14/14/4 15/15/4 12/12/4 
s 16
f 11/16/5 10/17/5 14/18/5 
f 14/18/5 13/19/5 11/16/5 
s 64
f 9/16/6 8/17/6 12/18/6 
f 12/18/6 15/19/6 9/16/6 
s 32
f 16/20/7 17/21/7 18/22/7 
f 18/22/7 19/23/7 16/20/7 
s 64
f 19/24/8 18/25/8 20/26/8 
f 20/26/8 21/27/8 19/24/8 
s 32
f 22/28/9 23/29/9 24/30/9 
f 24/30/9 25/31/9 22/28/9 
s 64
f 23/32/8 26/33/8 27/34/8 
f 27/34/8 24/35/8 23/32/8 
s 32
f 28/36/7 29/37/7 30/38/7 
f 30/38/7 31/39/7 28/36/7 
s 64
f 29/40/10 32/41/10 33/42/10 
f 33/42/10 30/43/10 29/40/10 
s 32
f 34/44/9 35/45/9 36/46/9 
f 36/46/9 37/47/9 34/44/9 
s 64
f 37/48/10 36/49/10 38/50/10 
f 38/50/10 39/51/10 37/48/10 
# 24 faces

#
# object Line037
#

v  1092965.0000 2307.2927 -50057.5352
v  1092967.3750 2307.2927 -50057.5586
v  1092965.0000 2307.2927 -50058.6797
v  1092962.1250 2319.6199 -50055.0625
v  1093052.1250 2319.6199 -50055.0625
v  1093052.1250 2547.2927 -50055.0625
v  1092962.1250 2547.2927 -50055.0625
# 7 vertices

vn 0.0000 1.0000 -0.0000
vn 0.0000 0.0000 1.0000
# 2 vertex normals

vt 0.0300 0.4526 0.0000
vt 0.0200 0.4525 0.0000
vt 0.0300 0.4478 0.0000
vt 0.0100 0.3533 0.0000
vt 0.0106 0.0214 0.0000
vt 0.9794 0.0229 0.0000
vt 0.9758 0.3531 0.0000
# 7 texture coords

g Line037
usemtl Material__1983
s 1
f 40/52/11 41/53/11 42/54/11 
s 8
f 43/55/12 44/56/12 45/57/12 
f 45/57/12 46/58/12 43/55/12 
# 3 faces

