# 3ds Max Wavefront OBJ Exporter v0.97b - (c)2007 guruware
# 创建的文件:30.08.2020 15:50:50

mtllib 小冲床-动态.mtl

#
# object 1
#

v  31100.986 2456.900 -7144.089
v  31065.285 1982.760 -7144.089
v  30815.287 1982.760 -7144.089
v  31100.986 2456.900 -7071.359
v  31065.287 1982.760 -7071.359
v  30815.285 1982.760 -7071.359
v  32672.387 1982.760 -5980.452
v  32422.387 1982.760 -5980.452
v  32386.686 2456.900 -5980.452
v  32672.387 1982.760 -5907.725
v  32386.688 2456.900 -5907.725
v  32422.387 1982.760 -5907.725
v  31100.986 2456.900 -6853.179
v  31065.285 1982.760 -6853.179
v  30815.287 1982.760 -6853.179
v  31100.986 2456.900 -6780.449
v  31065.287 1982.760 -6780.449
v  30815.285 1982.760 -6780.449
v  32672.387 1982.760 -7532.349
v  32672.387 1982.760 -5369.613
v  32672.387 1879.310 -5369.613
v  32672.387 1879.311 -7532.349
v  30808.586 1982.760 -7532.349
v  30808.586 1982.760 -5369.613
v  30808.586 1879.310 -7532.349
v  30808.586 1879.311 -5369.613
v  31100.986 2456.900 -6271.359
v  31065.285 1982.760 -6271.359
v  30815.287 1982.760 -6271.359
v  31100.986 2456.900 -6198.629
v  31065.287 1982.760 -6198.629
v  30815.285 1982.760 -6198.629
v  32672.387 1982.760 -6853.179
v  32422.387 1982.760 -6853.179
v  32386.688 2456.900 -6853.179
v  32672.387 1982.760 -6780.449
v  32386.686 2456.900 -6780.449
v  32422.387 1982.760 -6780.449
v  31100.986 2456.900 -5980.452
v  31065.285 1982.760 -5980.452
v  30815.287 1982.760 -5980.452
v  31100.986 2456.900 -5907.725
v  31065.287 1982.760 -5907.725
v  30815.285 1982.760 -5907.724
v  32672.387 1982.760 -6271.359
v  32422.387 1982.760 -6271.359
v  32386.688 2456.900 -6271.359
v  32672.387 1982.760 -6198.639
v  32386.686 2456.900 -6198.629
v  32422.387 1982.760 -6198.629
v  31065.285 3243.890 -5509.821
v  31065.285 3243.890 -5604.367
v  31065.287 2937.551 -5736.046
v  31065.289 1982.760 -5509.821
v  31065.285 2912.000 -5751.047
v  31065.287 2892.020 -5771.551
v  31065.285 2879.440 -5795.876
v  31065.285 2875.190 -5821.892
v  31065.287 2875.190 -7050.199
v  31065.287 1982.760 -7362.269
v  31065.285 2879.440 -7076.219
v  31065.285 2892.020 -7100.539
v  31065.287 2912.000 -7121.049
v  31065.287 2937.551 -7136.049
v  31065.287 3243.890 -7362.269
v  31065.287 3243.890 -7267.729
v  32422.385 1982.760 -5509.821
v  32422.385 1982.760 -7362.269
v  32422.387 2937.551 -5736.047
v  32422.387 3243.890 -5509.821
v  32422.387 3243.890 -5604.367
v  32422.387 2912.000 -5751.047
v  32422.387 2892.020 -5771.551
v  32422.387 2879.440 -5795.876
v  32422.387 2875.190 -5821.892
v  32422.387 2875.190 -7050.199
v  32422.387 2879.440 -7076.219
v  32422.387 2892.020 -7100.539
v  32422.387 2912.000 -7121.049
v  32422.387 2937.551 -7136.049
v  32422.387 3243.890 -7362.269
v  32422.387 3243.890 -7267.729
v  32672.387 1982.760 -5689.543
v  32422.387 1982.760 -5689.543
v  32386.686 2456.900 -5689.543
v  32386.686 2456.900 -5616.816
v  32672.387 1982.760 -5616.816
v  32422.387 1982.760 -5616.816
v  31100.986 2456.900 -6562.269
v  31065.285 1982.760 -6562.269
v  30815.287 1982.760 -6562.269
v  31100.986 2456.900 -6489.539
v  31065.287 1982.760 -6489.539
v  30815.285 1982.760 -6489.539
v  32672.387 1982.760 -7144.089
v  32422.387 1982.760 -7144.089
v  32386.688 2456.900 -7144.089
v  32672.387 1982.760 -7071.359
v  32386.686 2456.900 -7071.359
v  32422.387 1982.760 -7071.359
v  31100.988 2456.900 -5689.543
v  31065.285 1982.760 -5689.543
v  30815.285 1982.760 -5689.542
v  31100.986 2456.900 -5616.815
v  31065.287 1982.760 -5616.815
v  30815.285 1982.760 -5616.815
v  32672.387 1982.760 -6562.269
v  32422.387 1982.760 -6562.269
v  32386.688 2456.900 -6562.269
v  32672.387 1982.760 -6489.539
v  32386.686 2456.900 -6489.539
v  32422.387 1982.760 -6489.539
v  30510.586 1769.050 -8059.849
v  30760.586 1769.050 -8059.849
v  30760.586 1769.050 -4759.853
v  30510.586 1769.050 -4759.853
v  30510.586 2019.050 -8059.849
v  30510.586 2019.050 -4759.853
v  30760.586 2019.050 -8059.849
v  30760.586 2019.050 -4759.853
# 120 vertices

vn 0.256 0.802 -0.541
vn 0.553 -0.597 -0.581
vn -0.725 -0.409 -0.554
vn 0.256 0.802 0.541
vn 0.553 -0.597 0.581
vn -0.725 -0.409 0.554
vn 0.725 -0.409 -0.554
vn -0.553 -0.597 -0.581
vn -0.256 0.802 -0.541
vn 0.725 -0.409 0.554
vn -0.256 0.802 0.541
vn -0.553 -0.597 0.581
vn 0.577 0.577 -0.577
vn 0.577 0.577 0.577
vn 0.577 -0.577 0.577
vn 0.577 -0.577 -0.577
vn -0.577 0.577 -0.577
vn -0.577 0.577 0.577
vn -0.577 -0.577 -0.577
vn -0.577 -0.577 0.577
vn -0.553 -0.596 -0.581
vn -0.602 0.667 -0.439
vn -0.721 0.313 -0.618
vn -0.738 0.416 -0.531
vn -0.742 0.544 -0.392
vn -0.744 0.634 -0.210
vn -0.726 0.686 -0.056
vn -0.726 0.686 0.056
vn -0.744 0.634 0.210
vn -0.742 0.544 0.392
vn -0.738 0.416 0.531
vn -0.721 0.313 0.618
vn -0.602 0.667 0.439
vn 0.721 0.313 -0.618
vn 0.602 0.667 -0.439
vn 0.738 0.416 -0.531
vn 0.742 0.544 -0.392
vn 0.744 0.634 -0.210
vn 0.726 0.686 -0.056
vn 0.726 0.686 0.056
vn 0.744 0.634 0.210
vn 0.742 0.544 0.392
vn 0.738 0.416 0.531
vn 0.721 0.313 0.618
vn 0.602 0.667 0.439
vn 0.553 -0.596 0.581
# 46 vertex normals

o 1
g 1
usemtl Material__28
s 1
f 1//1 2//2 3//3 
s 2
f 4//4 5//5 2//2 
f 2//2 1//1 4//4 
s 1
f 4//4 6//6 5//5 
s 4
f 1//1 3//3 6//6 
f 6//6 4//4 1//1 
s 8
f 2//2 5//5 6//6 
f 6//6 3//3 2//2 
s 1
f 7//7 8//8 9//9 
s 2
f 10//10 7//7 11//11 
f 9//9 11//11 7//7 
s 1
f 10//10 11//11 12//12 
s 4
f 8//8 12//12 11//11 
f 11//11 9//9 8//8 
s 8
f 7//7 10//10 12//12 
f 12//12 8//8 7//7 
s 1
f 13//1 14//2 15//3 
s 2
f 16//4 17//5 14//2 
f 14//2 13//1 16//4 
s 1
f 16//4 18//6 17//5 
s 4
f 13//1 15//3 18//6 
f 18//6 16//4 13//1 
s 8
f 14//2 17//5 18//6 
f 18//6 15//3 14//2 
s 1
f 19//13 20//14 21//15 
f 21//15 22//16 19//13 
s 2
f 23//17 24//18 20//14 
f 20//14 19//13 23//17 
s 1
f 25//19 26//20 24//18 
f 24//18 23//17 25//19 
s 2
f 22//16 21//15 26//20 
f 26//20 25//19 22//16 
s 4
f 22//16 25//19 23//17 
f 23//17 19//13 22//16 
f 20//14 24//18 26//20 
f 26//20 21//15 20//14 
s 1
f 27//1 28//2 29//3 
s 2
f 30//4 31//5 28//2 
f 28//2 27//1 30//4 
s 1
f 30//4 32//6 31//5 
s 4
f 27//1 29//3 32//6 
f 32//6 30//4 27//1 
s 8
f 28//2 31//5 32//6 
f 32//6 29//3 28//2 
s 1
f 33//7 34//21 35//9 
s 2
f 36//10 33//7 35//9 
f 35//9 37//11 36//10 
s 1
f 36//10 37//11 38//12 
s 4
f 35//9 34//21 38//12 
f 38//12 37//11 35//9 
s 8
f 33//7 36//10 38//12 
f 38//12 34//21 33//7 
s 1
f 39//1 40//2 41//3 
s 2
f 42//4 43//5 40//2 
f 40//2 39//1 42//4 
s 1
f 42//4 44//6 43//5 
s 4
f 41//3 44//6 39//1 
f 42//4 39//1 44//6 
s 8
f 40//2 43//5 44//6 
f 44//6 41//3 40//2 
s 1
f 45//7 46//21 47//9 
s 2
f 48//10 45//7 47//9 
f 47//9 49//11 48//10 
s 1
f 48//10 49//11 50//12 
s 4
f 47//9 46//21 50//12 
f 50//12 49//11 47//9 
s 8
f 45//7 48//10 50//12 
f 50//12 46//21 45//7 
s 1
f 51//18 52//22 53//23 
f 51//18 53//23 54//20 
f 54//20 53//23 55//24 
f 56//25 54//20 55//24 
f 54//20 56//25 57//26 
f 57//26 58//27 54//20 
f 54//20 58//27 59//28 
f 59//28 60//19 54//20 
f 59//28 61//29 60//19 
f 62//30 60//19 61//29 
f 60//19 62//30 63//31 
f 60//19 63//31 64//32 
f 60//19 64//32 65//17 
f 66//33 65//17 64//32 
s 2
f 67//15 54//20 60//19 
f 60//19 68//16 67//15 
s 1
f 69//34 70//14 67//15 
f 71//35 70//14 69//34 
f 67//15 72//36 69//34 
f 67//15 73//37 72//36 
f 73//37 67//15 74//38 
f 75//39 74//38 67//15 
f 67//15 76//40 75//39 
f 76//40 67//15 68//16 
f 77//41 76//40 68//16 
f 68//16 78//42 77//41 
f 78//42 68//16 79//43 
f 79//43 68//16 80//44 
f 68//16 81//13 80//44 
f 81//13 82//45 80//44 
s 2
f 51//18 70//14 52//22 
f 71//35 52//22 70//14 
s 4
f 68//16 60//19 65//17 
f 65//17 81//13 68//16 
s 2
f 65//17 66//33 82//45 
f 82//45 81//13 65//17 
s 4
f 82//45 66//33 64//32 
f 64//32 80//44 82//45 
f 64//32 63//31 80//44 
f 79//43 80//44 63//31 
f 78//42 79//43 63//31 
f 63//31 62//30 78//42 
f 62//30 61//29 78//42 
f 77//41 78//42 61//29 
f 61//29 59//28 77//41 
f 76//40 77//41 59//28 
f 75//39 76//40 59//28 
f 59//28 58//27 75//39 
f 57//26 75//39 58//27 
f 75//39 57//26 74//38 
f 74//38 57//26 56//25 
f 74//38 56//25 73//37 
f 72//36 73//37 56//25 
f 55//24 72//36 56//25 
f 53//23 72//36 55//24 
f 72//36 53//23 69//34 
f 69//34 53//23 52//22 
f 52//22 71//35 69//34 
f 54//20 67//15 70//14 
f 70//14 51//18 54//20 
s 1
f 83//7 84//8 85//9 
s 2
f 86//11 87//10 83//7 
f 83//7 85//9 86//11 
s 1
f 87//10 86//11 88//12 
s 4
f 84//8 88//12 85//9 
f 86//11 85//9 88//12 
s 8
f 83//7 87//10 88//12 
f 88//12 84//8 83//7 
s 1
f 89//1 90//2 91//3 
s 2
f 92//4 93//5 90//2 
f 90//2 89//1 92//4 
s 1
f 92//4 94//6 93//5 
s 4
f 89//1 91//3 94//6 
f 94//6 92//4 89//1 
s 8
f 90//2 93//5 94//6 
f 94//6 91//3 90//2 
s 1
f 95//7 96//21 97//9 
s 2
f 98//10 95//7 97//9 
f 97//9 99//11 98//10 
s 1
f 98//10 99//11 100//12 
s 4
f 97//9 96//21 100//12 
f 100//12 99//11 97//9 
s 8
f 95//7 98//10 100//12 
f 100//12 96//21 95//7 
s 1
f 101//1 102//2 103//3 
s 2
f 104//4 105//46 102//2 
f 102//2 101//1 104//4 
s 1
f 104//4 106//6 105//46 
s 4
f 103//3 106//6 104//4 
f 104//4 101//1 103//3 
s 8
f 102//2 105//46 106//6 
f 106//6 103//3 102//2 
s 1
f 107//7 108//21 109//9 
s 2
f 110//10 107//7 109//9 
f 109//9 111//11 110//10 
s 1
f 110//10 111//11 112//12 
s 4
f 109//9 108//21 112//12 
f 112//12 111//11 109//9 
s 8
f 107//7 110//10 112//12 
f 112//12 108//21 107//7 
s 1
f 113//19 114//16 115//15 
f 113//19 115//15 116//20 
s 2
f 117//17 113//19 116//20 
f 117//17 116//20 118//18 
s 1
f 119//13 117//17 118//18 
f 119//13 118//18 120//14 
s 2
f 114//16 119//13 120//14 
f 114//16 120//14 115//15 
s 4
f 113//19 117//17 119//13 
f 113//19 119//13 114//16 
f 116//20 115//15 120//14 
f 116//20 120//14 118//18 
# 0 polygons - 180 triangles

#
# object 对象007
#

v  32079.787 2875.190 -6818.499
v  31700.984 2875.190 -6978.259
v  31998.586 2875.190 -6886.329
v  31495.984 2875.190 -6936.739
v  31805.486 2875.190 -6967.779
v  31596.486 2875.190 -6967.779
v  32146.387 2875.190 -6735.839
v  31905.986 2875.190 -6936.739
v  32195.885 2875.190 -6641.539
v  31255.586 2875.190 -6129.759
v  31206.086 2875.190 -6641.539
v  32226.387 2875.190 -6326.389
v  31206.086 2875.190 -6224.069
v  31322.188 2875.190 -6818.499
v  32079.789 2875.190 -6047.109
v  32236.688 2875.190 -6432.799
v  31165.287 2875.190 -6432.799
v  31255.586 2875.190 -6735.839
v  31403.387 2875.190 -6886.329
v  32195.887 2875.190 -6224.069
v  31495.984 2875.190 -5928.867
v  32226.387 2875.190 -6539.219
v  31175.586 2875.190 -6326.389
v  31175.586 2875.190 -6539.209
v  32146.387 2875.190 -6129.759
v  31700.986 2875.190 -5887.347
v  31322.188 2875.190 -6047.109
v  31805.486 2875.190 -5897.827
v  31596.486 2875.190 -5897.827
v  31403.387 2875.190 -5979.272
v  31998.586 2875.190 -5979.272
v  31905.986 2875.190 -5928.867
v  31805.486 6323.471 -5897.827
v  31905.986 6323.471 -5928.867
v  31998.586 6323.471 -5979.272
v  32079.789 6323.470 -6047.109
v  31700.986 6323.471 -5887.347
v  31495.984 6323.470 -5928.867
v  31255.586 6323.470 -6129.759
v  31596.486 6323.471 -5897.827
v  32226.387 6323.471 -6326.389
v  31322.188 6323.471 -6047.109
v  32195.887 6323.471 -6224.069
v  32195.885 6323.470 -6641.539
v  31403.387 6323.471 -5979.272
v  32146.387 6323.471 -6129.759
v  31495.984 6323.470 -6936.739
v  32236.688 6323.471 -6432.799
v  32146.387 6323.471 -6735.839
v  31206.086 6323.470 -6641.539
v  32226.387 6323.471 -6539.219
v  32079.787 6323.471 -6818.499
v  31322.188 6323.471 -6818.499
v  31206.086 6323.471 -6224.069
v  31700.986 6323.471 -6978.259
v  31403.387 6323.471 -6886.329
v  31255.586 6323.471 -6735.839
v  31165.287 6323.471 -6432.799
v  31998.586 6323.471 -6886.329
v  31596.486 6323.471 -6967.779
v  31175.586 6323.471 -6326.389
v  31175.586 6323.471 -6539.209
v  31805.486 6323.471 -6967.779
v  31905.986 6323.471 -6936.739
v  31596.486 5000.000 -6967.779
v  31700.986 5000.000 -6978.259
v  31805.486 5000.000 -6967.779
v  31905.986 5000.000 -6936.739
v  31998.586 5000.000 -6886.329
v  32079.785 5000.000 -6818.499
v  31495.986 5000.000 -6936.739
v  31403.387 5000.000 -6886.329
v  32146.387 5000.000 -6735.839
v  31322.188 5000.000 -6818.499
v  31255.586 5000.000 -6735.839
v  32195.887 5000.000 -6641.539
v  31206.086 5000.000 -6641.539
v  32226.387 5000.000 -6539.219
v  31175.586 5000.000 -6539.209
v  32236.688 5000.000 -6432.799
v  31165.287 5000.000 -6432.799
v  32226.387 5000.000 -6326.389
v  31175.586 5000.000 -6326.389
v  32195.887 5000.000 -6224.069
v  31206.086 5000.000 -6224.069
v  32146.387 5000.000 -6129.759
v  31255.586 5000.000 -6129.759
v  32079.785 5000.000 -6047.109
v  31322.188 5000.000 -6047.109
v  31998.586 5000.000 -5979.272
v  31905.986 5000.000 -5928.867
v  31403.387 5000.000 -5979.272
v  31805.486 5000.000 -5897.827
v  31700.986 5000.000 -5887.347
v  31596.486 5000.000 -5897.827
v  31495.986 5000.000 -5928.867
v  31165.285 5000.000 -6432.799
# 97 vertices

vn 0.519 -0.686 -0.510
vn -0.000 -0.685 -0.728
vn 0.409 -0.686 -0.602
vn -0.283 -0.685 -0.671
vn 0.144 -0.685 -0.714
vn -0.144 -0.685 -0.714
vn 0.608 -0.686 -0.399
vn 0.283 -0.685 -0.671
vn 0.674 -0.686 -0.274
vn -0.608 -0.686 0.399
vn -0.674 -0.686 -0.274
vn 0.714 -0.686 0.140
vn -0.674 -0.686 0.274
vn -0.519 -0.686 -0.510
vn 0.519 -0.686 0.510
vn 0.728 -0.686 0.000
vn -0.728 -0.686 -0.000
vn -0.608 -0.686 -0.399
vn -0.409 -0.686 -0.602
vn 0.674 -0.686 0.274
vn -0.283 -0.685 0.671
vn 0.714 -0.686 -0.140
vn -0.714 -0.686 0.140
vn -0.714 -0.686 -0.140
vn 0.608 -0.686 0.399
vn 0.000 -0.685 0.728
vn -0.519 -0.686 0.510
vn 0.144 -0.685 0.714
vn -0.144 -0.685 0.714
vn -0.409 -0.686 0.602
vn 0.409 -0.686 0.602
vn 0.283 -0.685 0.671
vn 0.145 0.685 0.714
vn 0.283 0.685 0.671
vn 0.409 0.686 0.602
vn 0.519 0.686 0.510
vn -0.000 0.685 0.728
vn -0.283 0.685 0.671
vn -0.608 0.686 0.399
vn -0.144 0.685 0.714
vn 0.714 0.686 0.140
vn -0.519 0.686 0.510
vn 0.674 0.686 0.274
vn 0.674 0.686 -0.274
vn -0.409 0.686 0.602
vn 0.608 0.686 0.399
vn -0.283 0.685 -0.671
vn 0.728 0.686 0.000
vn 0.608 0.686 -0.399
vn -0.674 0.686 -0.274
vn 0.714 0.686 -0.140
vn 0.519 0.686 -0.510
vn -0.519 0.686 -0.510
vn -0.674 0.686 0.274
vn -0.000 0.685 -0.728
vn -0.409 0.686 -0.602
vn -0.608 0.686 -0.399
vn -0.728 0.686 -0.000
vn 0.409 0.686 -0.602
vn -0.144 0.685 -0.714
vn -0.714 0.686 0.140
vn -0.714 0.686 -0.140
vn 0.145 0.685 -0.714
vn 0.283 0.685 -0.671
vn -0.198 0.000 -0.980
vn -0.000 -0.000 -1.000
vn 0.198 -0.000 -0.980
vn 0.389 0.000 -0.921
vn 0.562 0.000 -0.827
vn 0.713 0.000 -0.701
vn -0.389 0.000 -0.921
vn -0.562 0.000 -0.827
vn 0.836 -0.000 -0.549
vn -0.713 -0.000 -0.701
vn -0.836 0.000 -0.549
vn 0.926 -0.000 -0.377
vn -0.926 0.000 -0.377
vn 0.981 0.000 -0.192
vn -0.981 0.000 -0.192
vn 1.000 -0.000 0.000
vn -1.000 0.000 -0.000
vn 0.981 -0.000 0.192
vn -0.981 -0.000 0.192
vn 0.926 -0.000 0.377
vn -0.926 -0.000 0.377
vn 0.836 0.000 0.549
vn -0.836 -0.000 0.549
vn 0.713 0.000 0.701
vn -0.713 -0.000 0.701
vn 0.562 -0.000 0.827
vn 0.389 -0.000 0.921
vn -0.562 -0.000 0.827
vn 0.198 -0.000 0.980
vn 0.000 -0.000 1.000
vn -0.198 0.000 0.980
vn -0.389 0.000 0.921
vn -0.000 0.000 1.000
vn 0.198 0.000 0.980
vn -0.198 -0.000 0.980
vn -0.389 -0.000 0.921
vn -0.713 0.000 0.701
vn -0.836 0.000 0.549
vn -0.926 0.000 0.377
vn -0.981 0.000 0.192
vn -0.713 0.000 -0.701
vn -0.389 -0.000 -0.921
vn -0.198 -0.000 -0.980
vn 0.389 -0.000 -0.921
vn 0.713 -0.000 -0.701
vn 0.926 0.000 -0.377
vn 1.000 0.000 -0.000
vn 0.926 0.000 0.377
vn 0.713 -0.000 0.701
vn 0.389 0.000 0.921
# 114 vertex normals

o 对象007
g 对象007
usemtl Material__28
s 1
f 121//47 122//48 123//49 
f 124//50 122//48 121//47 
f 123//49 122//48 125//51 
f 124//50 126//52 122//48 
f 124//50 121//47 127//53 
f 125//51 128//54 123//49 
f 127//53 129//55 124//50 
f 130//56 124//50 129//55 
f 130//56 131//57 124//50 
f 132//58 130//56 129//55 
f 131//57 130//56 133//59 
f 131//57 134//60 124//50 
f 130//56 132//58 135//61 
f 132//58 129//55 136//62 
f 131//57 133//59 137//63 
f 131//57 138//64 134//60 
f 124//50 134//60 139//65 
f 140//66 135//61 132//58 
f 130//56 135//61 141//67 
f 142//68 136//62 129//55 
f 143//69 137//63 133//59 
f 131//57 137//63 144//70 
f 140//66 145//71 135//61 
f 141//67 135//61 146//72 
f 130//56 141//67 147//73 
f 146//72 135//61 148//74 
f 141//67 146//72 149//75 
f 141//67 150//76 147//73 
f 148//74 135//61 151//77 
f 151//77 152//78 148//74 
f 153//79 154//80 155//81 
f 155//81 156//82 153//79 
f 153//79 156//82 157//83 
f 157//83 156//82 158//84 
f 158//84 156//82 159//85 
f 160//86 157//83 158//84 
f 156//82 161//87 159//85 
f 162//88 158//84 159//85 
f 161//87 156//82 163//89 
f 164//90 159//85 161//87 
f 162//88 165//91 158//84 
f 156//82 166//92 163//89 
f 164//90 167//93 159//85 
f 168//94 164//90 161//87 
f 167//93 164//90 169//95 
f 167//93 170//96 159//85 
f 164//90 168//94 171//97 
f 169//95 172//98 167//93 
f 167//93 173//99 170//96 
f 174//100 159//85 170//96 
f 172//98 175//101 167//93 
f 176//102 173//99 167//93 
f 173//99 177//103 170//96 
f 178//104 174//100 170//96 
f 179//105 175//101 172//98 
f 175//101 180//106 167//93 
f 174//100 178//104 181//107 
f 182//108 178//104 170//96 
f 183//109 175//101 179//105 
f 179//105 184//110 183//109 
s 2
f 122//48 126//52 185//111 
f 186//112 122//48 185//111 
f 122//48 186//112 187//113 
f 125//51 122//48 187//113 
f 128//54 125//51 187//113 
f 187//113 188//114 128//54 
f 123//49 128//54 188//114 
f 188//114 189//115 123//49 
f 121//47 123//49 189//115 
f 190//116 121//47 189//115 
f 127//53 121//47 190//116 
f 126//52 191//117 185//111 
f 126//52 124//50 191//117 
f 191//117 124//50 192//118 
f 190//116 193//119 127//53 
f 129//55 127//53 193//119 
f 124//50 139//65 192//118 
f 194//120 192//118 139//65 
f 139//65 134//60 194//120 
f 134//60 195//121 194//120 
f 196//122 129//55 193//119 
f 142//68 129//55 196//122 
f 134//60 138//64 195//121 
f 195//121 138//64 197//123 
f 196//122 198//124 142//68 
f 136//62 142//68 198//124 
f 138//64 131//57 197//123 
f 197//123 131//57 199//125 
f 200//126 136//62 198//124 
f 200//126 132//58 136//62 
f 131//57 144//70 199//125 
f 201//127 199//125 144//70 
f 202//128 132//58 200//126 
f 140//66 132//58 202//128 
f 137//63 201//127 144//70 
f 201//127 137//63 203//129 
f 204//130 140//66 202//128 
f 145//71 140//66 204//130 
f 203//129 137//63 143//69 
f 203//129 143//69 205//131 
f 206//132 145//71 204//130 
f 135//61 145//71 206//132 
f 143//69 133//59 205//131 
f 207//133 205//131 133//59 
f 208//134 135//61 206//132 
f 151//77 135//61 208//134 
f 133//59 130//56 207//133 
f 207//133 130//56 209//135 
f 151//77 208//134 210//136 
f 152//78 151//77 210//136 
f 210//136 211//137 152//78 
f 148//74 152//78 211//137 
f 130//56 147//73 209//135 
f 212//138 209//135 147//73 
f 213//139 148//74 211//137 
f 146//72 148//74 213//139 
f 146//72 213//139 214//140 
f 149//75 146//72 214//140 
f 214//140 215//141 149//75 
f 141//67 149//75 215//141 
f 215//141 216//142 141//67 
f 150//76 141//67 216//142 
f 212//138 150//76 216//142 
f 147//73 150//76 212//138 
s 4
f 214//143 213//144 153//79 
f 214//143 153//79 157//83 
f 215//145 214//143 157//83 
f 157//83 160//86 215//145 
f 216//146 215//145 160//86 
f 160//86 158//84 216//146 
f 212//138 216//146 158//84 
f 165//91 212//138 158//84 
f 209//147 212//138 165//91 
f 165//91 162//88 209//147 
f 207//148 209//147 162//88 
f 159//85 207//148 162//88 
f 205//149 207//148 159//85 
f 159//85 174//100 205//149 
f 203//150 205//149 174//100 
f 181//107 203//150 174//100 
f 181//107 217//127 203//150 
f 178//104 217//127 181//107 
f 217//127 178//104 199//125 
f 178//104 182//108 199//125 
f 197//123 199//125 182//108 
f 170//96 197//123 182//108 
f 195//121 197//123 170//96 
f 177//103 195//121 170//96 
f 194//151 195//121 177//103 
f 194//151 177//103 173//99 
f 192//118 194//151 173//99 
f 173//99 176//102 192//118 
f 191//152 192//118 176//102 
f 167//93 191//152 176//102 
f 185//153 191//152 167//93 
f 185//153 167//93 180//106 
f 186//112 185//153 180//106 
f 175//101 186//112 180//106 
f 186//112 175//101 183//109 
f 187//113 186//112 183//109 
f 188//154 187//113 183//109 
f 183//109 184//110 188//154 
f 189//115 188//154 184//110 
f 184//110 179//105 189//115 
f 190//155 189//115 179//105 
f 172//98 190//155 179//105 
f 193//119 190//155 172//98 
f 172//98 169//95 193//119 
f 196//156 193//119 169//95 
f 164//90 196//156 169//95 
f 198//124 196//156 164//90 
f 164//90 171//97 198//124 
f 200//157 198//124 171//97 
f 168//94 200//157 171//97 
f 168//94 202//128 200//157 
f 161//87 202//128 168//94 
f 202//128 161//87 204//158 
f 161//87 163//89 204//158 
f 206//132 204//158 163//89 
f 166//92 206//132 163//89 
f 208//159 206//132 166//92 
f 156//82 208//159 166//92 
f 210//136 208//159 156//82 
f 210//136 156//82 155//81 
f 211//160 210//136 155//81 
f 155//81 154//80 211//160 
f 213//144 211//160 154//80 
f 153//79 213//144 154//80 
# 0 polygons - 188 triangles

