# 3ds Max Wavefront OBJ Exporter v0.97b - (c)2007 guruware
# 创建的文件:30.08.2020 14:13:33

mtllib 小冲床 横梁.mtl

#
# object 对象002
#

v  19781.629 1769.050 -494.641
v  20031.629 1769.050 -494.641
v  20031.629 1769.050 2805.354
v  19781.629 1769.050 2805.354
v  19781.629 2019.050 -494.641
v  19781.629 2019.050 2805.354
v  20031.629 2019.050 -494.641
v  20031.629 2019.050 2805.354
# 8 vertices

vn -0.577 -0.577 -0.577
vn 0.577 -0.577 -0.577
vn 0.577 -0.577 0.577
vn -0.577 -0.577 0.577
vn -0.577 0.577 -0.577
vn -0.577 0.577 0.577
vn 0.577 0.577 -0.577
vn 0.577 0.577 0.577
# 8 vertex normals

o 对象002
g 对象002
usemtl Material__28
s 1
f 1//1 2//2 3//3 
f 1//1 3//3 4//4 
s 2
f 5//5 1//1 4//4 
f 5//5 4//4 6//6 
s 1
f 7//7 5//5 6//6 
f 7//7 6//6 8//8 
s 2
f 2//2 7//7 8//8 
f 2//2 8//8 3//3 
s 4
f 1//1 5//5 7//7 
f 1//1 7//7 2//2 
f 4//4 3//3 8//8 
f 4//4 8//8 6//6 
# 0 polygons - 12 triangles

