# 3ds Max Wavefront OBJ Exporter v0.97b - (c)2007 guruware
# 创建的文件:21.12.2017 23:27:04

mtllib 机柜4.mtl

#
# object Line038
#

v  1093049.2500 2308.1582 -50299.4609
v  1093046.8750 2308.1582 -50299.4375
v  1093049.2500 2308.1582 -50298.3164
v  1093052.1250 2315.1558 -50301.9336
v  1092962.1250 2315.1558 -50301.9336
v  1092962.1250 2444.3977 -50301.9336
v  1093052.1250 2444.3977 -50301.9336
# 7 vertices

vn 0.0000 1.0000 -0.0000
vn 0.0000 0.0000 -1.0000
# 2 vertex normals

vt 0.0300 0.4526 0.0000
vt 0.0200 0.4525 0.0000
vt 0.0300 0.4478 0.0000
vt 0.0100 0.3533 0.0000
vt 0.0106 0.0214 0.0000
vt 0.9794 0.0229 0.0000
vt 0.9758 0.3531 0.0000
# 7 texture coords

g Line038
usemtl 4
s 1
f 1/1/1 2/2/1 3/3/1 
s 8
f 4/4/2 5/5/2 6/6/2 
f 6/6/2 7/7/2 4/4/2 
# 3 faces

#
# object Box1824
#

v  1092962.1250 2315.1558 -50211.9336
v  1092962.1250 2315.1558 -50301.9336
v  1093052.1250 2315.1558 -50301.9336
v  1093052.1250 2315.1558 -50211.9336
v  1092962.1250 2444.3977 -50211.9336
v  1093052.1250 2444.3977 -50211.9336
v  1093052.1250 2444.3977 -50301.9336
v  1092962.1250 2444.3977 -50301.9336
v  1092969.8750 2308.1582 -50214.3125
v  1092975.2500 2315.1082 -50214.2500
v  1092965.0000 2315.1082 -50214.2500
v  1092964.8750 2308.1582 -50214.3125
v  1092965.0000 2315.1082 -50224.5469
v  1092964.8750 2308.1582 -50219.2344
v  1092969.8750 2308.1582 -50299.3711
v  1092964.8750 2308.1582 -50299.3711
v  1092965.0000 2315.1082 -50299.4336
v  1092975.2500 2315.1082 -50299.4336
v  1092964.8750 2308.1582 -50294.4492
v  1092965.0000 2315.1082 -50289.1367
v  1093044.6250 2308.1582 -50214.3125
v  1093049.6250 2308.1582 -50214.3125
v  1093049.5000 2315.1082 -50214.2500
v  1093039.2500 2315.1082 -50214.2500
v  1093049.6250 2308.1582 -50219.2344
v  1093049.5000 2315.1082 -50224.5469
v  1093044.6250 2308.1582 -50299.3711
v  1093039.2500 2315.1082 -50299.4336
v  1093049.5000 2315.1082 -50299.4336
v  1093049.6250 2308.1582 -50299.3711
v  1093049.5000 2315.1082 -50289.1367
v  1093049.6250 2308.1582 -50294.4492
# 32 vertices

vn 0.0000 -1.0000 -0.0000
vn 0.0000 1.0000 -0.0000
vn 1.0000 0.0000 -0.0000
vn -1.0000 0.0000 -0.0000
vn 0.0000 -0.0050 1.0000
vn -1.0000 0.0052 -0.0000
vn 0.0000 -0.0050 -1.0000
vn 1.0000 0.0052 -0.0000
# 8 vertex normals

vt 0.0652 0.9820 0.0000
vt 0.0652 0.7688 0.0000
vt 0.2990 0.7688 0.0000
vt 0.2990 0.9820 0.0000
vt 0.3402 0.7788 0.0000
vt 0.5134 0.7788 0.0000
vt 0.5134 0.9520 0.0000
vt 0.3402 0.9520 0.0000
vt 0.0254 0.6891 0.0000
vt 0.0254 0.3754 0.0000
vt 0.9797 0.3754 0.0000
vt 0.9797 0.6891 0.0000
vt 0.3931 0.5156 0.0000
vt 0.4312 0.4987 0.0000
vt 0.4312 0.5307 0.0000
vt 0.3931 0.5309 0.0000
vt 0.3500 0.5196 0.0000
vt 0.3888 0.5194 0.0000
vt 0.3888 0.5521 0.0000
vt 0.3500 0.5352 0.0000
vt 0.3790 0.5175 0.0000
vt 0.3790 0.5022 0.0000
vt 0.4171 0.5024 0.0000
vt 0.4171 0.5345 0.0000
vt 0.3801 0.5302 0.0000
vt 0.3801 0.5149 0.0000
vt 0.4182 0.4984 0.0000
vt 0.4182 0.5304 0.0000
vt 0.3678 0.5572 0.0000
vt 0.3678 0.5416 0.0000
vt 0.4067 0.5418 0.0000
vt 0.4067 0.5744 0.0000
vt 0.3689 0.5701 0.0000
vt 0.3689 0.5545 0.0000
vt 0.4077 0.5376 0.0000
vt 0.4077 0.5703 0.0000
vt 0.3643 0.5233 0.0000
vt 0.4032 0.5061 0.0000
vt 0.4032 0.5387 0.0000
vt 0.3643 0.5389 0.0000
vt 0.3821 0.5381 0.0000
vt 0.4210 0.5379 0.0000
vt 0.4210 0.5706 0.0000
vt 0.3821 0.5538 0.0000
# 44 texture coords

g Box1824
usemtl 4
s 2
f 8/8/3 9/9/3 10/10/3 
f 10/10/3 11/11/3 8/8/3 
s 4
f 12/12/4 13/13/4 14/14/4 
f 14/14/4 15/15/4 12/12/4 
s 16
f 11/16/5 10/17/5 14/18/5 
f 14/18/5 13/19/5 11/16/5 
s 64
f 9/16/6 8/17/6 12/18/6 
f 12/18/6 15/19/6 9/16/6 
s 32
f 16/20/7 17/21/7 18/22/7 
f 18/22/7 19/23/7 16/20/7 
s 64
f 19/24/8 18/25/8 20/26/8 
f 20/26/8 21/27/8 19/24/8 
s 32
f 22/28/9 23/29/9 24/30/9 
f 24/30/9 25/31/9 22/28/9 
s 64
f 23/32/8 26/33/8 27/34/8 
f 27/34/8 24/35/8 23/32/8 
s 32
f 28/36/7 29/37/7 30/38/7 
f 30/38/7 31/39/7 28/36/7 
s 64
f 29/40/10 32/41/10 33/42/10 
f 33/42/10 30/43/10 29/40/10 
s 32
f 34/44/9 35/45/9 36/46/9 
f 36/46/9 37/47/9 34/44/9 
s 64
f 37/48/10 36/49/10 38/50/10 
f 38/50/10 39/51/10 37/48/10 
# 24 faces

#
# object Line039
#

v  1092965.0000 2308.1582 -50214.4063
v  1092967.3750 2308.1582 -50214.4297
v  1092965.0000 2308.1582 -50215.5508
v  1092962.1250 2315.1558 -50211.9336
v  1093052.1250 2315.1558 -50211.9336
v  1093052.1250 2444.3977 -50211.9336
v  1092962.1250 2444.3977 -50211.9336
# 7 vertices

vn 0.0000 1.0000 -0.0000
vn 0.0000 0.0000 1.0000
# 2 vertex normals

vt 0.0300 0.4526 0.0000
vt 0.0200 0.4525 0.0000
vt 0.0300 0.4478 0.0000
vt 0.0100 0.3533 0.0000
vt 0.0106 0.0214 0.0000
vt 0.9794 0.0229 0.0000
vt 0.9758 0.3531 0.0000
# 7 texture coords

g Line039
usemtl 4
s 1
f 40/52/11 41/53/11 42/54/11 
s 8
f 43/55/12 44/56/12 45/57/12 
f 45/57/12 46/58/12 43/55/12 
# 3 faces

